<svg width="24" height="24" viewBox="0 0 24 24" fill="none" xmlns="http://www.w3.org/2000/svg">
<path d="M21.975 12.5H2.02502C2.11652 14.3415 2.69652 16.0525 3.65252 17.5H20.3475C21.303 16.0525 21.8835 14.3415 21.975 12.5Z" fill="#3F51B5"/>
<path d="M22 12C22 6.477 17.523 2 12 2C6.477 2 2 6.477 2 12C2 12.169 2.017 12.3335 2.025 12.5H21.975C21.983 12.3335 22 12.169 22 12Z" fill="#FFC107"/>
<path d="M20.3475 17.5H3.65253C5.44153 20.2095 8.51003 22 12 22C15.49 22 18.5585 20.2095 20.3475 17.5Z" fill="#FF3D00"/>
</svg>
