<svg width="24" height="24" viewBox="0 0 24 24" fill="none" xmlns="http://www.w3.org/2000/svg">
<path d="M16 2.8375C14.7745 2.302 13.423 2 12 2C10.577 2 9.2255 2.302 8 2.8375V21.162C9.2255 21.698 10.577 22 12 22C13.423 22 14.7745 21.698 16 21.1625V2.8375Z" fill="white"/>
<path d="M22 11.9999C22 7.9004 19.5305 4.3814 16 2.8374V21.1619C19.5305 19.6184 22 16.0994 22 11.9999Z" fill="#D50000"/>
<path d="M2 11.9999C2 16.0994 4.4695 19.6184 8 21.1624V2.8374C4.4695 4.3814 2 7.9004 2 11.9999Z" fill="#1B5E20"/>
<path d="M12.953 13.2399C12.824 13.2749 12.5975 13.3124 12.324 13.2789C12.0525 13.2459 11.7515 13.2964 11.5445 13.1869C11.2865 13.2629 11.1755 13.0464 11.1345 12.8879C11.107 13.0304 11.109 13.1084 11.0055 13.0794C10.902 13.0479 10.5835 12.8979 10.5075 12.8684C10.4295 12.8369 10.412 12.9094 10.539 12.9799C10.664 13.0484 10.781 13.1284 10.785 13.1754C10.787 13.2244 10.6755 13.2849 10.6365 13.3044C10.826 13.3044 11.035 13.3474 11.1035 13.3629C11.2305 13.3924 11.2385 13.4839 11.031 13.6284C11.5565 13.5679 11.4725 13.8354 11.738 13.8334C11.9335 13.8314 12.2125 13.8294 12.3025 13.8294C12.5135 13.8294 12.525 13.6809 12.5975 13.6574C12.7575 13.6049 12.9235 13.5559 13.0505 13.5129C12.9215 13.4834 12.8495 13.4504 12.8495 13.4189C12.8495 13.3894 13.1075 13.2859 13.2325 13.2334C13.1875 13.2189 13.082 13.2029 12.953 13.2399Z" fill="#039BE5"/>
<path d="M12.5975 13.1249C12.566 13.0779 12.492 13.0684 12.453 13.1209C12.236 13.0759 11.752 13.0894 11.5935 13.1209C11.5565 13.0684 11.482 13.0779 11.451 13.1249C11.418 13.1739 11.4395 13.2344 11.4765 13.2579C11.4355 13.3204 11.451 13.4904 11.4765 13.5624C11.4395 13.5859 11.418 13.6444 11.451 13.6954C11.4825 13.7424 11.5565 13.7519 11.5935 13.6974C11.775 13.7734 12.2675 13.7734 12.453 13.6974C12.492 13.7519 12.5665 13.7404 12.5975 13.6954C12.6305 13.6444 12.609 13.5859 12.572 13.5624C12.5975 13.4899 12.611 13.3204 12.572 13.2579C12.6095 13.2344 12.631 13.1739 12.5975 13.1249Z" fill="#FBC02D"/>
<path d="M12.617 13.1115C12.5975 13.08 12.5605 13.0605 12.523 13.0605C12.4915 13.0605 12.4645 13.072 12.445 13.0935C12.2675 13.0605 11.951 13.062 11.742 13.078C11.742 13.078 11.742 13.078 11.74 13.078C11.738 13.078 11.736 13.078 11.732 13.078V13.08C11.683 13.084 11.6345 13.088 11.603 13.0935C11.5835 13.072 11.554 13.0605 11.525 13.0605C11.488 13.0605 11.451 13.08 11.4295 13.1115C11.412 13.137 11.404 13.17 11.412 13.2015C11.416 13.225 11.4275 13.2485 11.445 13.264C11.4135 13.34 11.4255 13.481 11.447 13.553C11.4295 13.5705 11.4155 13.594 11.412 13.6175C11.404 13.6505 11.412 13.682 11.4295 13.7095C11.451 13.741 11.488 13.7605 11.525 13.7605C11.5545 13.7605 11.5815 13.749 11.601 13.729C11.6965 13.762 11.859 13.78 12.021 13.78C12.2985 13.78 12.4235 13.737 12.447 13.729C12.4665 13.7485 12.494 13.7605 12.523 13.7605C12.56 13.7605 12.597 13.741 12.617 13.7095C12.6365 13.682 12.6425 13.651 12.6365 13.6175C12.6305 13.594 12.619 13.5705 12.5995 13.553C12.621 13.4805 12.6325 13.34 12.6035 13.264C12.619 13.2485 12.633 13.225 12.6365 13.2015C12.6425 13.17 12.6365 13.1365 12.617 13.1115ZM11.623 13.6795C11.6345 13.6445 11.629 13.609 11.6115 13.5895C11.586 13.564 11.551 13.558 11.5195 13.576L11.545 13.619C11.5605 13.609 11.5705 13.619 11.5745 13.623C11.586 13.6365 11.59 13.658 11.5745 13.6835C11.563 13.699 11.545 13.709 11.5255 13.709C11.504 13.709 11.4825 13.699 11.471 13.6795C11.4575 13.66 11.4575 13.6405 11.461 13.6285C11.465 13.609 11.4745 13.5935 11.4905 13.5835L11.506 13.572L11.5 13.5545C11.4745 13.484 11.463 13.326 11.496 13.2715L11.5095 13.252L11.49 13.2385C11.4745 13.2285 11.4625 13.211 11.4605 13.1915C11.4565 13.18 11.4565 13.16 11.4705 13.1405C11.482 13.123 11.5035 13.111 11.525 13.111C11.5445 13.111 11.56 13.121 11.572 13.1365C11.5895 13.162 11.5855 13.1835 11.574 13.197C11.568 13.201 11.5565 13.2085 11.5445 13.201L11.519 13.244C11.5305 13.252 11.5445 13.254 11.556 13.254C11.5755 13.254 11.595 13.246 11.6085 13.2305C11.626 13.213 11.63 13.1815 11.624 13.1505C11.6905 13.164 11.749 13.307 11.8 13.4355C11.845 13.5545 11.886 13.668 11.9465 13.7265C11.8185 13.7225 11.699 13.707 11.623 13.6795ZM12.049 13.7285C11.967 13.7205 11.9045 13.5605 11.848 13.418C11.801 13.299 11.756 13.1895 11.6975 13.133C11.711 13.131 11.725 13.131 11.7405 13.129C11.8145 13.129 11.881 13.2855 11.9415 13.424C11.994 13.545 12.047 13.666 12.1135 13.7265C12.092 13.7265 12.0705 13.7285 12.049 13.7285ZM12.209 13.7205C12.123 13.7145 12.051 13.5505 11.9865 13.404C11.9375 13.289 11.889 13.1815 11.8285 13.1225C11.846 13.1225 11.8635 13.1205 11.883 13.1205C11.9555 13.1265 12.0235 13.2865 12.088 13.425C12.1405 13.546 12.1935 13.6595 12.258 13.716C12.242 13.717 12.2245 13.719 12.209 13.7205ZM12.551 13.2715C12.584 13.324 12.5745 13.4825 12.549 13.5545L12.541 13.572L12.5585 13.582C12.572 13.592 12.584 13.6095 12.588 13.629C12.59 13.6405 12.59 13.6605 12.5765 13.68C12.565 13.6975 12.545 13.7095 12.524 13.7095C12.5045 13.7095 12.487 13.6995 12.475 13.684C12.4595 13.6585 12.4635 13.635 12.475 13.6235C12.479 13.6195 12.4865 13.61 12.5045 13.6195L12.53 13.5765C12.4985 13.559 12.4635 13.565 12.438 13.59C12.4205 13.6095 12.4145 13.6425 12.4265 13.68C12.401 13.69 12.372 13.6955 12.3385 13.7035C12.268 13.69 12.194 13.5375 12.1355 13.4065C12.081 13.2875 12.03 13.178 11.9675 13.1175C12.1335 13.1155 12.3075 13.1215 12.4245 13.143C12.4165 13.178 12.4205 13.2115 12.438 13.231C12.4535 13.2465 12.471 13.2545 12.4905 13.2545C12.504 13.2545 12.516 13.2505 12.5295 13.243L12.504 13.2C12.4905 13.21 12.4785 13.202 12.4725 13.196C12.4625 13.1845 12.457 13.161 12.4745 13.1375C12.49 13.114 12.5115 13.11 12.5235 13.11C12.545 13.112 12.5645 13.1215 12.576 13.1395C12.5895 13.159 12.5895 13.1785 12.5875 13.192C12.5835 13.2095 12.572 13.227 12.556 13.237L12.537 13.25L12.551 13.2715Z" fill="#BF360C"/>
<path d="M10.6505 13.2129C10.5355 13.2129 10.5355 13.3924 10.6505 13.3924C10.7655 13.3924 10.7675 13.2129 10.6505 13.2129Z" fill="white"/>
<path d="M10.6504 13.1875C10.5779 13.1875 10.5389 13.244 10.5389 13.3025C10.5389 13.359 10.5759 13.4175 10.6504 13.4175C10.7249 13.4175 10.7639 13.359 10.7639 13.3025C10.7634 13.244 10.7244 13.1875 10.6504 13.1875ZM10.6504 13.367C10.6014 13.367 10.5879 13.326 10.5879 13.3025C10.5879 13.277 10.6014 13.236 10.6504 13.236C10.6934 13.236 10.7129 13.269 10.7129 13.3025C10.7129 13.326 10.6989 13.367 10.6504 13.367Z" fill="#1976D2"/>
<path d="M11.1094 12.8145C10.9944 12.8145 10.9944 12.996 11.1094 12.996C11.2244 12.996 11.2264 12.8145 11.1094 12.8145Z" fill="white"/>
<path d="M11.1095 12.7891C11.037 12.7891 10.998 12.8476 10.998 12.9041C10.998 12.9626 11.035 13.0191 11.1095 13.0191C11.184 13.0191 11.223 12.9606 11.223 12.9041C11.2205 12.8476 11.1835 12.7891 11.1095 12.7891ZM11.1095 12.9706C11.0605 12.9706 11.047 12.9296 11.047 12.9041C11.047 12.8806 11.0605 12.8376 11.1095 12.8376C11.1525 12.8376 11.172 12.8706 11.172 12.9041C11.172 12.9296 11.158 12.9706 11.1095 12.9706Z" fill="#1976D2"/>
<path d="M13.008 13.4414C12.891 13.4414 12.891 13.6229 13.008 13.6229C13.123 13.6229 13.125 13.4414 13.008 13.4414Z" fill="white"/>
<path d="M13.008 13.416C12.934 13.416 12.8945 13.4745 12.8945 13.531C12.8945 13.5895 12.9335 13.646 13.008 13.646C13.0805 13.646 13.1195 13.5895 13.1195 13.531C13.1195 13.5015 13.1095 13.4745 13.092 13.453C13.0725 13.4295 13.043 13.416 13.008 13.416ZM13.008 13.5975C12.959 13.5975 12.9455 13.5565 12.9455 13.531C12.9455 13.5075 12.959 13.4665 13.008 13.4665C13.051 13.4665 13.0705 13.498 13.0705 13.531C13.0705 13.5565 13.0565 13.5975 13.008 13.5975Z" fill="#1976D2"/>
<path d="M10.3125 12.8206C10.285 12.8636 10.3515 12.9436 10.422 12.9771C10.4905 13.0101 10.553 12.9851 10.5725 12.9536C10.594 12.9241 10.5725 12.8461 10.4925 12.8031C10.422 12.7656 10.338 12.7796 10.3125 12.8206Z" fill="#FBC02D"/>
<path d="M11.008 13.5275C10.932 13.553 10.881 13.623 10.889 13.674C10.899 13.723 11.0005 13.7325 11.0725 13.7055C11.143 13.68 11.168 13.61 11.1565 13.5745C11.1385 13.5235 11.092 13.5 11.008 13.5275Z" fill="#FBC02D"/>
<path d="M13.1504 13.164C13.0779 13.1895 13.0429 13.25 13.0529 13.285C13.0684 13.3375 13.1134 13.361 13.1994 13.336C13.2754 13.3125 13.3594 13.2305 13.3399 13.1855C13.3164 13.129 13.2224 13.1385 13.1504 13.164Z" fill="#FBC02D"/>
<path d="M13.543 13.9025C13.5275 13.871 13.4455 13.84 13.412 13.8265C13.42 13.7895 13.3905 13.678 13.361 13.647C13.402 13.639 13.4195 13.5805 13.3825 13.5495C13.353 13.526 13.314 13.5415 13.3005 13.5595C13.287 13.5775 13.287 13.6355 13.328 13.6475C13.334 13.6845 13.369 13.8155 13.3395 13.868C13.396 13.87 13.4975 13.905 13.525 13.9305C13.5115 13.9735 13.56 14.0065 13.5815 14.0045C13.603 14.0025 13.636 13.975 13.6325 13.936C13.631 13.8865 13.5725 13.869 13.543 13.9025Z" fill="#FBC02D"/>
<path d="M14.367 13.1546C14.3415 13.1311 14.2555 13.1291 14.2205 13.1271C14.2165 13.0901 14.154 12.9921 14.117 12.9746C14.154 12.9531 14.154 12.8906 14.107 12.8731C14.072 12.8616 14.0405 12.8886 14.033 12.9101C14.0255 12.9316 14.0445 12.9881 14.0875 12.9841C14.105 13.0171 14.1775 13.1306 14.1635 13.1891C14.22 13.1716 14.3275 13.1716 14.361 13.1851C14.361 13.2321 14.4155 13.2456 14.435 13.2361C14.4545 13.2266 14.48 13.1911 14.4645 13.1561C14.4455 13.1096 14.385 13.1136 14.367 13.1546Z" fill="#FBC02D"/>
<path d="M14.83 12.1621C14.797 12.1541 14.705 12.1721 14.6735 12.1856C14.654 12.1561 14.5835 12.0936 14.5505 12.0821C14.574 12.0451 14.5445 11.9901 14.498 11.9981C14.461 12.0041 14.4455 12.0451 14.449 12.0666C14.451 12.0901 14.492 12.1311 14.529 12.1076C14.5585 12.1291 14.6365 12.2111 14.652 12.2696C14.693 12.2286 14.8005 12.1971 14.8375 12.1956C14.857 12.2346 14.9115 12.2211 14.9255 12.2036C14.9395 12.1861 14.945 12.1431 14.9155 12.1176C14.879 12.0861 14.826 12.1171 14.83 12.1621Z" fill="#FBC02D"/>
<path d="M14.7345 11.783C14.711 11.7125 14.596 11.572 14.541 11.5115C14.582 11.5955 14.496 11.7675 14.584 11.904C14.664 12.025 14.658 12.15 14.629 12.2945L14.664 12.32C14.6895 12.074 14.7735 12.035 14.83 11.982C14.916 11.902 15.0175 11.765 14.998 11.6715C14.9845 11.613 14.9705 11.5385 14.9765 11.488C14.8885 11.5155 14.7775 11.6955 14.7345 11.783Z" fill="#558B2F"/>
<path d="M14.498 12.6426C14.508 12.5701 14.496 12.3886 14.4825 12.3201C14.2695 12.3651 14.205 12.6541 14.2345 12.9021C14.258 13.0896 14.172 13.1581 14.0605 13.2576L14.0935 13.3086C14.1775 13.1916 14.316 13.0486 14.484 12.9766C14.654 12.9041 14.699 12.5686 14.8375 12.4276C14.6545 12.4416 14.588 12.5491 14.498 12.6426Z" fill="#558B2F"/>
<path d="M13.8905 13.1135C13.8825 13.225 13.623 13.3305 13.535 13.598C13.5 13.7015 13.461 13.768 13.3105 13.8675L13.3025 13.9085C13.6325 13.6645 13.73 13.7775 13.951 13.7015C14.172 13.6255 14.115 13.469 14.1715 13.348C14.074 13.358 13.9315 13.4185 13.859 13.481C13.8985 13.4025 13.92 13.248 13.8905 13.1135Z" fill="#558B2F"/>
<path d="M13.162 13.7479C12.7265 13.6894 12.6755 14.0194 12.457 14.0624C12.504 14.1054 12.4685 14.1229 12.697 14.2384C12.9275 14.3519 13.203 14.1234 13.322 14.1409C13.2145 14.0744 13.0585 14.0394 12.955 14.0199C13.047 13.9669 13.0995 13.8084 13.162 13.7479Z" fill="#558B2F"/>
<path d="M14.6525 12.2344C14.467 12.3284 14.338 12.6369 14.297 12.8694C14.2655 13.0454 14.2265 13.1079 14.174 13.1759C13.9905 13.1839 13.809 13.3479 13.715 13.4689C13.631 13.5804 13.4845 13.7269 13.3595 13.8399C13.164 13.8244 12.9395 13.9139 12.8125 13.9784C12.6795 14.0449 12.5605 14.0449 12.457 14.0254C12.1755 13.9744 11.8555 13.9709 11.533 14.2129C11.5095 14.2284 11.5605 14.2889 11.5935 14.2639C11.865 14.0469 12.238 13.9574 12.5605 14.1644C12.7365 14.2794 13.2185 14.1234 13.381 13.8404C13.379 13.8404 13.377 13.8404 13.375 13.8404C13.424 13.8034 13.4725 13.7699 13.658 13.7074C13.908 13.6214 14.1055 13.4184 14.1855 13.1744C14.1835 13.1744 14.1815 13.1744 14.1795 13.1744C14.252 13.0964 14.3885 12.9594 14.502 12.8149C14.633 12.6429 14.6915 12.4104 14.664 12.2389C14.6855 12.1274 14.75 12.0064 14.8165 11.9164C14.8905 11.8129 14.885 11.5724 14.7675 11.3794C14.6115 11.5114 14.6855 11.8984 14.6525 12.2344Z" fill="#1B5E20"/>
<path d="M10.658 13.6426C10.6755 13.5861 10.648 13.5176 10.607 13.5196C10.568 13.5236 10.5775 13.6191 10.599 13.6621C10.6185 13.7031 10.6265 13.7616 10.632 13.8396L10.6965 13.8786C10.658 13.8301 10.6425 13.7011 10.658 13.6426Z" fill="#827717"/>
<path d="M10.6095 13.6329C10.557 13.6134 10.541 13.6409 10.5605 13.6839C10.59 13.7424 10.658 13.7484 10.6835 13.7054C10.7165 13.6469 10.695 13.6114 10.672 13.6234C10.6485 13.6364 10.621 13.6384 10.6095 13.6329Z" fill="#FBC02D"/>
<path d="M10.4476 13.8711C10.4046 13.8631 10.3126 13.8791 10.3206 13.9201C10.3286 13.9611 10.4006 13.9711 10.4476 13.9376C10.4946 13.9041 10.6176 13.8866 10.6721 13.9121L10.6196 13.8596C10.5471 13.8731 10.4921 13.8811 10.4476 13.8711Z" fill="#827717"/>
<path d="M10.424 13.8904C10.432 13.9019 10.4375 13.9294 10.434 13.9569C10.428 13.9824 10.4655 13.9959 10.51 13.9454C10.543 13.9104 10.518 13.8399 10.4575 13.8284C10.412 13.8184 10.3925 13.8419 10.424 13.8904Z" fill="#FBC02D"/>
<path d="M9.836 12.9295C9.846 12.9745 9.84 13.039 9.828 13.117L9.8865 13.166C9.861 13.1095 9.869 12.9785 9.898 12.926C9.9275 12.875 9.9155 12.801 9.8765 12.793C9.838 12.787 9.826 12.883 9.836 12.9295Z" fill="#827717"/>
<path d="M9.85153 12.9044C9.80453 12.8714 9.78503 12.8944 9.79503 12.9414C9.80653 13.0039 9.87503 13.0274 9.90853 12.9924C9.95553 12.9434 9.94153 12.9064 9.91653 12.9104C9.89053 12.9179 9.86353 12.9119 9.85153 12.9044Z" fill="#FBC02D"/>
<path d="M9.65049 13.1149C9.60949 13.0974 9.51549 13.0954 9.51749 13.1384C9.51949 13.1794 9.58799 13.2029 9.64049 13.1794C9.69299 13.1559 9.84749 13.1639 9.89649 13.1989L9.82799 13.1284C9.75199 13.1309 9.69349 13.1309 9.65049 13.1149Z" fill="#827717"/>
<path d="M9.62503 13.1291C9.63103 13.1406 9.63103 13.1701 9.62303 13.1956C9.61303 13.2211 9.64853 13.2406 9.70103 13.1996C9.73803 13.1681 9.72453 13.0961 9.66803 13.0726C9.62503 13.0566 9.59953 13.0741 9.62503 13.1291Z" fill="#FBC02D"/>
<path d="M9.42196 12.0234C9.41396 12.0684 9.37296 12.1329 9.32996 12.1974L9.35346 12.3029C9.37296 12.2014 9.43346 12.0824 9.48046 12.0469C9.52746 12.0139 9.54496 11.9394 9.51196 11.9159C9.47896 11.8924 9.43146 11.9764 9.42196 12.0234Z" fill="#827717"/>
<path d="M9.44744 12.0061C9.41794 11.9571 9.38894 11.9691 9.38094 12.0161C9.36744 12.0806 9.41994 12.1296 9.46494 12.1116C9.52544 12.0861 9.52744 12.0451 9.50194 12.0391C9.47644 12.0351 9.45494 12.0176 9.44744 12.0061Z" fill="#FBC02D"/>
<path d="M9.16004 12.0919C9.13254 12.0549 9.05254 12.0039 9.03304 12.0409C9.01354 12.0779 9.06255 12.1349 9.11905 12.1424C9.17555 12.1484 9.30454 12.2399 9.33204 12.2949L9.30655 12.1974C9.24005 12.1599 9.18954 12.1289 9.16004 12.0919Z" fill="#827717"/>
<path d="M9.13104 12.09C9.13104 12.1035 9.11754 12.129 9.09804 12.1465C9.07854 12.162 9.09804 12.199 9.16254 12.1915C9.20954 12.1835 9.23504 12.1155 9.19554 12.0645C9.16604 12.0275 9.13654 12.0315 9.13104 12.09Z" fill="#FBC02D"/>
<path d="M11.5954 14.0059C11.5329 14.0234 11.4899 14.0449 11.4529 13.9784C11.4159 13.9119 11.3964 13.9394 11.3804 13.9609C11.3644 13.9824 11.3219 13.9824 11.2829 13.9119C11.2459 13.8434 11.2144 13.8199 11.1694 13.8239C11.1224 13.8299 11.1069 13.8554 11.1324 13.8999C11.1559 13.9449 11.1324 13.9799 11.0934 13.9369C11.0564 13.8959 11.0014 13.8374 10.9569 13.8394C10.9124 13.8414 10.8689 13.8474 10.8984 13.8919C10.9279 13.9364 10.9279 13.9859 10.8749 13.9444C10.8259 13.9034 10.7909 13.8859 10.7459 13.8899C10.5799 13.8194 10.4784 13.6594 10.4724 13.5674C10.4664 13.4719 10.4449 13.4969 10.4314 13.5184C10.4199 13.5419 10.3789 13.5729 10.3609 13.4989C10.3394 13.4069 10.3529 13.3269 10.3199 13.2859C10.2849 13.2429 10.2474 13.2254 10.2279 13.3014C10.2104 13.3794 10.1694 13.3364 10.1694 13.2719C10.1714 13.2074 10.1734 13.1449 10.1459 13.1154C10.1184 13.0879 10.0969 13.0899 10.0969 13.1504C10.0969 13.2129 10.0714 13.2244 10.0444 13.1679C10.0149 13.1094 9.97044 13.0799 9.97194 13.1404C9.97394 13.1639 9.97594 13.1814 9.97994 13.1989C9.79844 13.0954 9.72994 13.0114 9.72394 12.8999C9.71794 12.8044 9.71994 12.7574 9.75144 12.7184C9.78294 12.6794 9.76694 12.6384 9.72594 12.6734C9.68494 12.7104 9.64594 12.6989 9.65344 12.6344C9.66344 12.5719 9.68844 12.4899 9.66494 12.4429C9.64144 12.3939 9.59094 12.3959 9.57694 12.4604C9.57094 12.4879 9.54944 12.5169 9.52244 12.5169C9.49294 12.5169 9.49494 12.4504 9.50694 12.4094C9.51844 12.3664 9.48144 12.3369 9.46194 12.3724C9.44244 12.4094 9.39544 12.4449 9.37594 12.3899C9.37394 12.3879 9.37194 12.3879 9.37194 12.3859C9.35644 12.2629 9.27444 12.0209 9.31544 11.9719C9.35844 11.9194 9.35644 11.9094 9.32694 11.8859C9.29544 11.8604 9.32694 11.8134 9.37394 11.7939C9.44244 11.7664 9.47144 11.7079 9.42094 11.7119C9.33494 11.7179 9.28594 11.7019 9.33494 11.6729C9.39744 11.6359 9.46194 11.5909 9.44844 11.5364C9.44444 11.5149 9.41544 11.5089 9.38394 11.5209C9.35094 11.5324 9.32144 11.5129 9.35644 11.4859C9.40544 11.4529 9.36644 11.4174 9.40144 11.3919C9.43644 11.3684 9.42294 11.3354 9.40144 11.3394C9.37994 11.3414 9.32744 11.4019 9.30594 11.3744C9.28444 11.3469 9.25694 11.3179 9.23344 11.3704C9.19644 11.4464 9.24144 11.4954 9.21794 11.5324C9.19444 11.5674 9.16544 11.5794 9.13594 11.5404C9.10844 11.5014 9.06544 11.5129 9.06344 11.5619C9.05944 11.6109 9.08094 11.6399 9.11244 11.6849C9.14194 11.7299 9.13594 11.7649 9.08094 11.7374C9.02944 11.7149 9.00194 11.7149 8.99994 11.7599C8.99594 11.8049 9.01944 11.8204 9.08994 11.8539C9.15844 11.8869 9.16994 11.8969 9.17594 11.9339C9.18594 12.0004 9.24644 11.9884 9.26794 12.0764C9.28344 12.1524 9.31694 12.2659 9.32444 12.3789C9.31844 12.3849 9.31644 12.3944 9.31844 12.4064C9.26944 12.3869 9.26394 12.4279 9.28144 12.4514C9.30494 12.4829 9.31294 12.5119 9.28144 12.5039C9.25044 12.4959 9.18794 12.4724 9.19944 12.5234C9.21094 12.5724 9.31444 12.6094 9.38094 12.6229C9.44544 12.6364 9.45144 12.6679 9.41994 12.6774C9.39044 12.6889 9.37094 12.6834 9.32594 12.6774C9.27894 12.6694 9.27144 12.7069 9.30644 12.7479C9.34344 12.7889 9.43744 12.8004 9.48044 12.8044C9.54894 12.8124 9.55444 12.8669 9.52544 12.8649C9.49394 12.8649 9.43744 12.8434 9.43344 12.8749C9.42744 12.9064 9.50944 12.9414 9.56844 12.9354C9.62894 12.9294 9.63694 12.9434 9.65044 12.9609C9.72844 13.0724 9.86744 13.1994 9.96294 13.2459C9.95694 13.2499 9.96094 13.2594 9.95144 13.2594C9.90044 13.2574 9.85944 13.2674 9.90244 13.3064C9.94344 13.3474 9.97294 13.3574 9.99994 13.3629C10.0269 13.3684 10.0309 13.4059 10.0019 13.4194C9.97244 13.4329 9.94344 13.4234 9.91794 13.4114C9.89044 13.3999 9.84944 13.4154 9.89044 13.4639C9.92944 13.5129 9.99194 13.5364 10.0699 13.5364C10.1499 13.5364 10.1754 13.5734 10.1284 13.6009C10.0814 13.6284 10.0484 13.6304 9.99544 13.6204C9.94444 13.6124 9.93294 13.6574 10.0054 13.7024C10.0779 13.7474 10.1459 13.7374 10.2104 13.7139C10.2749 13.6924 10.2789 13.7179 10.2669 13.7394C10.2569 13.7589 10.2629 13.7904 10.3194 13.7724C10.3759 13.7529 10.4329 13.7334 10.5029 13.7839C10.5594 13.8269 10.6239 13.8834 10.6944 13.9284C10.6884 13.9499 10.6884 13.9734 10.6554 13.9829C10.6204 13.9929 10.5754 14.0159 10.5579 14.0394C10.5424 14.0629 10.5404 14.1214 10.6789 14.0999C10.8174 14.0764 10.8234 14.0844 10.8139 14.1294C10.8024 14.1744 10.8004 14.2289 10.8804 14.2094C10.9819 14.1859 11.0349 14.1059 11.0719 14.1429C11.0934 14.1664 11.0659 14.1994 11.0444 14.2229C11.0114 14.2599 11.0894 14.2934 11.1364 14.2559C11.1794 14.2209 11.2339 14.1544 11.2654 14.1679C11.2984 14.1794 11.2674 14.2204 11.2554 14.2459C11.2439 14.2694 11.2554 14.3199 11.3119 14.2929C11.3684 14.2634 11.4019 14.0899 11.5734 14.1134C11.6244 14.0159 12.0284 13.9629 12.3604 14.2539C12.3839 14.2774 12.4114 14.2774 12.4424 14.2734C12.4739 14.2714 12.5184 14.2734 12.4874 14.2459C12.2049 14.0329 11.8749 13.9259 11.5954 14.0059Z" fill="#1B5E20"/>
<path d="M12.09 14.1975C12.084 14.213 12.0645 14.256 12.057 14.266C12.1295 14.3245 12.221 14.3755 12.2385 14.44C12.264 14.4225 12.2875 14.4125 12.311 14.4105C12.3025 14.338 12.162 14.258 12.09 14.1975Z" fill="white"/>
<path d="M12.0565 14.2654C12.0485 14.2829 12.002 14.3004 11.986 14.3164C12.0485 14.3769 12.1385 14.4414 12.1835 14.4999C12.201 14.4724 12.2205 14.4529 12.238 14.4394C12.2205 14.3749 12.129 14.3239 12.0565 14.2654Z" fill="#1B5E20"/>
<path d="M11.9275 13.9221C11.8435 13.9281 11.857 13.9631 11.857 14.0901C11.861 14.1761 11.617 14.2326 11.5875 14.4261C11.617 14.4146 11.652 14.4046 11.689 14.4106C11.7145 14.3326 11.9545 14.2291 11.9545 14.0786L11.9525 14.0456C11.955 13.9866 11.957 13.9221 11.9275 13.9221Z" fill="#1B5E20"/>
<path d="M12.045 13.9219C12.0315 13.9219 12.0155 13.9219 11.998 13.9219C11.9705 13.9219 11.947 13.9219 11.9275 13.9219C11.957 13.9219 11.953 13.9864 11.953 14.0449C11.953 14.0664 11.955 14.0919 11.955 14.1174C11.953 14.1154 11.951 14.1134 11.949 14.1134C11.9255 14.2074 11.705 14.2894 11.689 14.4104C11.7145 14.4124 11.738 14.4219 11.7615 14.4419C11.789 14.3464 11.9665 14.2819 12.023 14.1839C12.029 14.1839 12.0345 14.1839 12.0405 14.1839C12.0795 14.1919 12.07 14.1039 12.07 14.0454C12.07 13.9869 12.074 13.9199 12.045 13.9219Z" fill="white"/>
<path d="M12.1385 14.1564C12.1385 14.1544 12.1385 14.1504 12.1385 14.1484C12.158 14.1289 12.168 14.0974 12.168 14.0469C12.168 14.0429 12.168 14.0409 12.168 14.0369V14.0349C12.166 13.9394 12.1445 13.9234 12.045 13.9214C12.0725 13.9194 12.0705 13.9779 12.0705 14.0329C12.0705 14.0349 12.0746 14.1069 12.0236 14.1834C11.9611 14.2774 11.791 14.3454 11.7635 14.4394C11.783 14.4529 11.8005 14.4724 11.818 14.4999C11.8705 14.4294 12.025 14.3434 12.109 14.2169C12.183 14.2659 12.3045 14.3459 12.312 14.4084C12.349 14.4044 12.3845 14.4144 12.4135 14.4239C12.377 14.2694 12.209 14.2009 12.1385 14.1564Z" fill="#DD2C00"/>
<path d="M9.95101 11.666C9.87101 11.746 9.91401 11.8225 9.95301 11.865C9.99401 11.906 10.088 11.9605 10.1365 11.91C10.1795 11.865 10.189 11.8005 10.1405 11.7185C10.092 11.6385 10.0135 11.6015 9.95101 11.666Z" fill="#EF5350"/>
<path d="M9.83997 11.422L9.90847 11.549L9.93997 11.5315L9.86947 11.4045L9.83997 11.422Z" fill="#FBC02D"/>
<path d="M9.84204 11.3279C9.77954 11.3279 9.77954 11.4314 9.84204 11.4314C9.90254 11.4314 9.90604 11.3279 9.84204 11.3279Z" fill="#FBC02D"/>
<path d="M10.0545 11.49C10.0135 11.486 10.002 11.5075 9.99803 11.5545C9.97853 11.5195 9.95303 11.5075 9.92003 11.527C9.89253 11.5445 9.88853 11.568 9.89853 11.5995C9.87703 11.586 9.85553 11.582 9.83203 11.6055C9.81253 11.627 9.81453 11.6485 9.82803 11.672C9.81803 11.674 9.81053 11.678 9.80653 11.6915C9.79303 11.7245 9.80053 11.7425 9.84753 11.758C9.89453 11.7695 9.91403 11.76 9.92153 11.7405C9.92153 11.7365 9.91953 11.7345 9.91953 11.7325C9.92953 11.7305 9.93903 11.7305 9.94703 11.7225C9.95503 11.7125 9.95703 11.699 9.95503 11.6835C9.97453 11.697 9.99003 11.701 10.006 11.6915C10.016 11.6835 10.0235 11.67 10.0255 11.6525C10.0315 11.6545 10.0355 11.6625 10.043 11.6625C10.078 11.6645 10.09 11.637 10.0995 11.5725C10.1095 11.5235 10.0975 11.494 10.0545 11.49Z" fill="#E53935"/>
<path d="M10.3065 11.8851C10.15 11.8126 9.98048 11.9281 9.99598 12.1216C10.0135 12.3151 10.25 12.4771 10.543 12.4886L10.662 12.3321C10.508 12.3086 10.576 12.0116 10.3065 11.8851Z" fill="#00897B"/>
<path d="M10.5605 12.1679C10.5235 12.0644 10.4745 11.9374 10.3165 11.8634C10.2365 11.8264 10.1445 11.8319 10.0765 11.8809C10.0025 11.9319 9.96297 12.0234 9.97297 12.1229C9.99047 12.3299 10.2405 12.5019 10.5415 12.5134H10.553L10.7075 12.3144L10.6665 12.3064C10.6135 12.2989 10.5935 12.2519 10.5605 12.1679ZM10.5295 12.4629C10.26 12.4474 10.0375 12.2989 10.0215 12.1189C10.0135 12.0349 10.045 11.9624 10.1055 11.9214C10.135 11.8999 10.172 11.8884 10.209 11.8884C10.2385 11.8884 10.2675 11.8944 10.295 11.9079C10.4355 11.9744 10.4765 12.0854 10.514 12.1854C10.5415 12.2539 10.565 12.3184 10.6215 12.3454L10.5295 12.4629Z" fill="#00695C"/>
<path d="M10.6561 12.2775C10.4551 12.4105 10.5196 12.5665 10.5761 12.635C10.6561 12.7305 11.0176 12.7915 11.2696 12.7075L11.2991 12.5435C11.1601 12.4045 10.8576 12.1445 10.6561 12.2775Z" fill="#00897B"/>
<path d="M10.6425 12.2579C10.5565 12.3144 10.5075 12.3809 10.496 12.4554C10.4825 12.5509 10.539 12.6294 10.5565 12.6509C10.615 12.7214 10.8005 12.7719 10.996 12.7719C11.0915 12.7719 11.1915 12.7604 11.2775 12.7309L11.291 12.7249L11.324 12.5354L11.314 12.5254C11.1875 12.3964 10.865 12.1094 10.6425 12.2579ZM11.248 12.6874C11.002 12.7614 10.664 12.7009 10.5935 12.6169C10.58 12.5994 10.535 12.5389 10.5465 12.4624C10.5545 12.4019 10.5955 12.3474 10.6695 12.2984C10.7025 12.2749 10.742 12.2654 10.781 12.2654C10.9645 12.2654 11.1855 12.4664 11.271 12.5504L11.248 12.6874Z" fill="#00695C"/>
<path d="M11.3731 12.4335C11.1506 12.572 11.2306 12.7775 11.3616 12.875C11.4945 12.9705 11.9006 12.9295 12.0785 12.881C12.2565 12.8325 12.3031 12.7425 12.2741 12.621C11.8711 12.453 11.5956 12.297 11.3731 12.4335Z" fill="#00897B"/>
<path d="M12.295 12.6035L12.2835 12.5975C12.231 12.576 12.178 12.5525 12.127 12.531C11.801 12.3885 11.5645 12.287 11.3595 12.412C11.2385 12.488 11.211 12.578 11.207 12.6385C11.203 12.7325 11.258 12.83 11.3455 12.8945C11.41 12.9415 11.527 12.957 11.65 12.957C11.816 12.957 11.9955 12.9295 12.0835 12.9045C12.261 12.8575 12.3315 12.762 12.2965 12.6155L12.295 12.6035ZM12.0725 12.8575C11.9005 12.9045 11.5 12.9455 11.377 12.8555C11.3165 12.8105 11.254 12.7325 11.258 12.6405C11.262 12.57 11.305 12.5055 11.387 12.455C11.4415 12.422 11.502 12.406 11.5665 12.406C11.715 12.406 11.8905 12.482 12.1075 12.578C12.1545 12.5975 12.2015 12.619 12.252 12.6385C12.2675 12.717 12.256 12.8065 12.0725 12.8575Z" fill="#00695C"/>
<path d="M13.16 12.6855C13.0995 12.7655 13.111 12.836 12.8925 12.826C12.869 12.871 12.826 12.914 12.738 12.949C12.775 12.955 12.8785 12.992 13.0565 13.0485C13.234 13.107 13.3515 13.08 13.5235 12.98C13.6955 12.88 13.668 12.7165 13.5235 12.597C13.3925 12.4865 13.2225 12.5975 13.16 12.6855Z" fill="#00897B"/>
<path d="M13.369 12.5275C13.2735 12.539 13.1835 12.6075 13.1385 12.67C13.127 12.6855 13.119 12.7015 13.109 12.717C13.076 12.7735 13.058 12.807 12.892 12.803L12.8765 12.801L12.8685 12.8165C12.845 12.8615 12.8 12.8985 12.728 12.928L12.644 12.961L12.734 12.9745C12.7595 12.9785 12.826 13 12.9235 13.033L13.0485 13.074C13.113 13.0935 13.1715 13.1035 13.2245 13.1035C13.332 13.1035 13.4255 13.0665 13.535 13.002C13.6345 12.9455 13.662 12.873 13.666 12.8245C13.674 12.7425 13.627 12.6525 13.539 12.5785C13.49 12.537 13.4275 12.5195 13.369 12.5275ZM13.51 12.959C13.334 13.0625 13.225 13.078 13.0645 13.0255L12.9395 12.9865C12.887 12.969 12.842 12.9535 12.8085 12.9435C12.8535 12.918 12.8845 12.889 12.906 12.8515C12.914 12.8515 12.9195 12.8515 12.9275 12.8515C13.076 12.8515 13.113 12.8085 13.152 12.74C13.16 12.7265 13.1675 12.7125 13.1795 12.699C13.2165 12.648 13.293 12.5875 13.375 12.576C13.426 12.57 13.4685 12.584 13.508 12.615C13.582 12.6795 13.6215 12.7535 13.6175 12.818C13.6115 12.873 13.574 12.922 13.51 12.959Z" fill="#00695C"/>
<path d="M12.297 12.6034C12.0335 12.6699 12.0155 12.9704 12.004 13.3204C12.004 13.3459 12.055 13.3459 12.1585 13.3459C12.262 13.3459 12.3165 13.3519 12.315 13.3089C12.3305 12.8694 12.9575 13.1349 12.9105 12.7054C12.8885 12.5134 12.5605 12.5369 12.297 12.6034Z" fill="#00897B"/>
<path d="M12.289 12.5781C12 12.6521 11.988 12.9921 11.9785 13.3201C11.9785 13.3691 12.035 13.3691 12.158 13.3691L12.191 13.3711C12.201 13.3711 12.2105 13.3711 12.2185 13.3711C12.271 13.3711 12.3065 13.3671 12.324 13.3476C12.332 13.3396 12.3395 13.3281 12.3375 13.3086C12.3455 13.1096 12.49 13.0701 12.64 13.0271C12.7885 12.9861 12.9605 12.9391 12.933 12.7031C12.929 12.6521 12.9035 12.6131 12.8625 12.5841C12.7225 12.4866 12.416 12.5491 12.289 12.5781ZM12.627 12.9806C12.4725 13.0216 12.299 13.0706 12.289 13.3086V13.3146C12.279 13.3206 12.2365 13.3206 12.1935 13.3206H12.1585C12.102 13.3206 12.047 13.3206 12.0295 13.3146C12.041 12.9376 12.0685 12.6856 12.303 12.6291C12.549 12.5666 12.727 12.5296 12.836 12.6251C12.8635 12.6486 12.881 12.6741 12.885 12.7091C12.906 12.9026 12.783 12.9356 12.627 12.9806Z" fill="#00695C"/>
<path d="M13.59 12.5666C13.51 12.6191 13.4885 12.6816 13.512 12.7306C13.5355 12.7776 13.633 12.7656 13.6955 12.7266C13.758 12.6876 13.797 12.6096 13.768 12.5606C13.7385 12.5136 13.656 12.5256 13.59 12.5666Z" fill="#EF5350"/>
<path d="M13.84 12.4724L13.8655 12.4979L13.963 12.3924L13.9375 12.3669L13.84 12.4724Z" fill="#FBC02D"/>
<path d="M13.9275 12.3731C13.945 12.4336 14.041 12.4101 14.023 12.3436C14.006 12.2816 13.91 12.3086 13.9275 12.3731Z" fill="#FBC02D"/>
<path d="M13.8475 12.5605C13.8845 12.539 13.8965 12.5095 13.875 12.4765C13.8535 12.445 13.83 12.447 13.801 12.465C13.811 12.4395 13.8125 12.414 13.7875 12.3985C13.7465 12.371 13.727 12.3905 13.6935 12.4475C13.66 12.5045 13.672 12.5355 13.6955 12.549C13.709 12.557 13.719 12.553 13.7305 12.549C13.7305 12.5605 13.7285 12.5705 13.7345 12.5785C13.7425 12.59 13.752 12.59 13.762 12.59C13.754 12.6015 13.7505 12.6155 13.752 12.627C13.758 12.664 13.787 12.67 13.8475 12.668C13.8945 12.664 13.9275 12.6485 13.9215 12.6035C13.914 12.5625 13.8905 12.5565 13.8475 12.5605Z" fill="#E53935"/>
<path d="M10.955 12.1975C10.869 12.258 10.8455 12.377 10.8925 12.4535C10.9415 12.5295 11.0195 12.508 11.0645 12.4535C11.1095 12.399 11.1015 12.27 11.076 12.225L10.955 12.1975Z" fill="#EF5350"/>
<path d="M11.0135 12.1444L11.0465 12.1559L11.0835 12.0114L11.0505 12.0034L11.0135 12.1444Z" fill="#FBC02D"/>
<path d="M11.0725 11.9375C11.01 11.9375 11.01 12.041 11.0725 12.041C11.133 12.041 11.1365 11.9375 11.0725 11.9375Z" fill="#FBC02D"/>
<path d="M11.0881 12.0779C11.0566 12.0779 11.0411 12.1034 11.0391 12.1289C11.0371 12.1289 11.0331 12.1289 11.0311 12.1289C11.0426 12.0974 11.0311 12.0549 10.9881 12.0549C10.9411 12.0549 10.9296 12.1094 10.9491 12.1409C10.9336 12.1309 10.9216 12.1154 10.9176 12.0939C10.8631 12.1504 10.9136 12.2404 10.9881 12.2209C10.9941 12.2324 10.9961 12.2444 11.0096 12.2484C11.0291 12.2544 11.0446 12.2504 11.0606 12.2369C11.0976 12.2699 11.1741 12.2409 11.1756 12.1589C11.1641 12.1649 11.1426 12.1704 11.1171 12.1724C11.1486 12.1444 11.1426 12.0779 11.0881 12.0779Z" fill="#E53935"/>
<path d="M12.8985 9.18938C12.6915 9.07038 12.453 9.02138 12.219 9.00388C12.0355 8.98838 11.9495 9.02338 11.924 9.08988C11.7835 9.09388 11.7405 9.15438 11.7035 9.23238C11.631 9.38288 11.772 9.40038 11.893 9.41588C12.014 9.43138 12.147 9.57038 12.102 9.76338C12.0495 9.67338 11.987 9.58588 11.8815 9.55438C11.903 9.54288 11.9225 9.52888 11.9325 9.51738C11.962 9.49188 11.9715 9.47038 11.8815 9.49188C11.7935 9.51138 11.6235 9.37088 11.5045 9.44288C11.5065 9.41538 11.5065 9.39188 11.5045 9.37438C11.491 9.26488 11.473 9.31988 11.448 9.38038C11.4345 9.41338 11.411 9.44088 11.3795 9.46238C11.3795 9.41138 11.3735 9.36288 11.368 9.32588C11.3565 9.25938 11.333 9.29838 11.331 9.37488C11.329 9.40988 11.321 9.45688 11.3075 9.50588C11.282 9.51938 11.2605 9.52938 11.237 9.54288C11.241 9.50988 11.241 9.48238 11.227 9.40438C11.2155 9.32638 11.182 9.37138 11.184 9.41588C11.186 9.46038 11.1705 9.57788 11.1295 9.63838C11.1395 9.60338 11.1375 9.55638 11.1215 9.50188C11.104 9.43338 11.0845 9.43738 11.0885 9.50788C11.0905 9.57238 11.0145 9.66238 10.944 9.71488C10.852 9.78338 10.8365 9.82638 10.8775 9.87488C10.9925 10.0059 11.3365 9.96088 11.391 9.97438C11.4145 9.98038 11.436 9.98988 11.436 10.0289C11.436 10.0504 11.444 10.0564 11.4635 10.0424C11.4535 10.0934 11.434 10.1519 11.405 10.1889C11.3795 10.2219 11.3875 10.2259 11.4245 10.2259C11.399 10.3139 11.311 10.3899 11.2995 10.4464C11.2935 10.4759 11.2995 10.4954 11.325 10.5009C11.2935 10.6144 11.2155 10.6689 11.2215 10.7839C11.2275 10.8989 11.3135 11.0439 11.3015 11.1119C11.2915 11.1724 11.3385 11.1644 11.374 11.1414C11.3935 11.1629 11.415 11.1864 11.4345 11.2079C11.411 11.2684 11.5145 11.4519 11.5985 11.5554C11.538 11.5224 11.4715 11.4969 11.452 11.5184C11.4365 11.5359 11.4755 11.6179 11.5615 11.6924C11.464 11.7589 11.294 11.8604 11.298 11.9114C11.3 11.9639 11.417 11.9914 11.548 12.0089C11.511 12.0674 11.515 12.1144 11.6185 12.1044C11.716 12.0944 11.8195 12.0459 11.8745 12.0184C11.9235 12.0849 11.978 12.1024 11.9975 11.8914C12.019 11.9229 12.0365 11.9479 12.052 11.9694C12.1145 12.0669 12.1495 12.1159 12.175 12.0864C12.2395 12.1839 12.2745 12.2329 12.3 12.2874C12.3275 12.3419 12.382 12.3889 12.4075 12.2249C12.427 12.2599 12.4445 12.2894 12.4585 12.3149C12.4955 12.3794 12.554 12.3714 12.5795 12.2349C12.611 12.2914 12.648 12.3249 12.6555 12.1549C12.677 12.2134 12.728 12.3014 12.72 12.1434C12.845 12.2704 12.8685 12.2879 12.9115 12.3309C12.9545 12.3719 13.017 12.3819 13.064 12.3349C13.146 12.4129 13.2415 12.3914 13.279 12.3309C13.361 12.3974 13.496 12.3424 13.5175 12.2704C13.547 12.2919 13.582 12.2919 13.66 12.2879C13.7655 12.2839 13.877 12.2389 13.738 12.1374C13.439 11.9204 12.951 11.5884 12.7515 11.4324C12.7435 11.2859 12.73 11.1024 12.683 10.9439C12.759 11.0454 12.818 11.0669 12.8745 11.0824C12.931 11.0959 12.9485 11.0609 13.0405 11.2209C13.0835 11.2949 13.101 11.3224 13.146 11.3654C13.193 11.4064 13.2065 11.3889 13.1575 11.2834C13.1105 11.1779 13.015 11.0394 12.929 10.9359C13.015 11.0299 13.017 11.0279 13.095 11.0589C13.173 11.0919 13.2415 11.1779 13.271 11.2719C13.2985 11.3639 13.353 11.4634 13.3705 11.5004C13.388 11.5354 13.4135 11.5199 13.394 11.4279C13.3725 11.3264 13.3215 11.1699 13.273 11.0744C13.3415 11.1469 13.4295 11.2129 13.441 11.3419C13.451 11.4729 13.484 11.5744 13.515 11.6289C13.546 11.6834 13.558 11.6404 13.554 11.5564C13.552 11.4724 13.5305 11.2949 13.4955 11.1464C13.55 11.2364 13.5855 11.3144 13.591 11.3669C13.6145 11.5564 13.6965 11.6714 13.6965 11.8824C13.6965 11.9549 13.7415 12.0659 13.755 11.9274C13.7745 11.7284 13.706 11.3514 13.704 11.1559C13.7295 11.2084 13.751 11.2654 13.7605 11.3354C13.782 11.5229 13.8465 11.6379 13.8545 11.8434C13.8625 12.0489 13.9015 12.1659 13.923 12.0289C13.997 11.5619 13.878 11.3669 13.9035 11.0389C13.9445 11.0974 13.9815 11.1619 13.9815 11.2344C13.9775 11.7559 14.0305 11.8339 14.0305 12.0819C14.0305 12.1719 14.042 12.3044 14.099 12.1094C14.1595 11.8984 14.1595 11.5899 14.1595 11.4064C14.158 9.89038 13.1055 9.31038 12.8985 9.18938Z" fill="#AD6119"/>
<path d="M12.8985 9.18938C12.6915 9.07038 12.453 9.02138 12.219 9.00388C12.0355 8.98838 11.9495 9.02338 11.924 9.08988C11.7835 9.09388 11.7405 9.15438 11.7035 9.23238C11.631 9.38288 11.772 9.40038 11.893 9.41588C11.9455 9.42188 12.0025 9.42738 12.1975 9.41388C12.3635 9.40238 12.4865 9.38838 12.635 9.42938C12.959 9.51938 13.256 9.79638 13.4555 10.0484C13.688 10.3394 13.903 11.0424 13.903 11.0424C13.944 11.1009 13.981 11.1654 13.981 11.2359C13.977 11.7574 14.03 11.8374 14.03 12.0834C14.03 12.1754 14.0415 12.3059 14.0985 12.1109C14.159 11.8999 14.159 11.5914 14.159 11.4079C14.158 9.89038 13.1055 9.31038 12.8985 9.18938Z" fill="#C47529"/>
<path d="M11.5954 11.5565C11.5369 11.5235 11.4704 11.5 11.4509 11.5215C11.4354 11.537 11.4744 11.619 11.5604 11.6935C11.4629 11.76 11.2929 11.8615 11.2949 11.9125C11.2989 11.965 11.4139 11.9925 11.5469 12.012C11.5079 12.0685 11.5119 12.1155 11.6174 12.106C11.7149 12.098 11.8184 12.0475 11.8714 12.02C11.9204 12.0885 11.9769 12.106 11.9964 11.893C12.0079 11.9105 11.9769 11.807 11.8714 11.6605C11.7324 11.5235 11.5154 11.457 11.5954 11.5565Z" fill="#9E5817"/>
<path d="M12.3259 11.801C12.1249 11.8595 12.1559 12.1075 12.1714 12.088C12.2379 12.1875 12.2729 12.2365 12.2984 12.289C12.3239 12.3435 12.3784 12.3905 12.4039 12.2285C12.4254 12.2635 12.4409 12.293 12.4564 12.3165C12.4934 12.381 12.5519 12.373 12.5774 12.2365C12.6089 12.295 12.6439 12.3265 12.6534 12.1585C12.6729 12.215 12.7259 12.303 12.7159 12.145C12.8429 12.272 12.7724 12.026 12.6379 11.903C12.6169 11.881 12.5524 11.787 12.3259 11.801Z" fill="#C47529"/>
<path d="M11.1015 9.67951L10.959 9.83601C10.955 9.86351 11.008 9.86551 11.049 9.85751C11.09 9.84951 11.139 9.81251 11.1445 9.76751C11.15 9.72251 11.1365 9.67751 11.1015 9.67951Z" fill="white"/>
<path d="M11.0546 9.90996C10.9821 9.84746 10.8966 9.89846 10.8591 9.84546C10.8221 9.84746 10.7866 9.88846 10.8101 9.92946C10.6851 10.0075 10.6771 10.162 10.7361 10.2535C10.7851 10.3295 10.9121 10.326 10.9451 10.32C10.8806 10.2965 10.8511 10.1405 10.8826 10.0975C10.9141 10.0565 10.9801 9.97046 11.1406 10.1485C11.1931 10.0975 11.2441 10.053 11.2931 10.049C11.3556 10.047 11.4201 9.98646 11.3791 9.93196C11.3381 9.87746 11.1171 9.96496 11.0546 9.90996Z" fill="#FBC02D"/>
<path d="M12.912 12.4651C12.7735 12.4671 12.668 12.3791 12.578 12.2366C12.5605 12.3596 12.49 12.4026 12.443 12.2931C12.4625 12.3671 12.3355 12.4261 12.267 12.3986C12.1985 12.3711 12.1185 12.4006 12.1185 12.4941C12.1185 12.5546 12.146 12.6056 12.2065 12.6211C12.195 12.6661 12.2495 12.7306 12.316 12.7326C12.3825 12.7366 12.437 12.6761 12.437 12.6096C12.525 12.6271 12.654 12.5316 12.7495 12.5941C12.775 12.6701 12.853 12.6841 12.941 12.6331C13.031 12.5821 12.992 12.4631 12.912 12.4651Z" fill="#FBC02D"/>
<path d="M12.203 12.6136C12.119 12.6311 12.0975 12.7601 12.211 12.8111C12.172 12.7386 12.289 12.7231 12.289 12.6861C12.289 12.6506 12.287 12.5941 12.203 12.6136Z" fill="#212121"/>
<path d="M12.092 12.4396C12.006 12.4416 11.9415 12.5666 12.0295 12.6331C12.008 12.5296 12.1095 12.5786 12.141 12.5551C12.17 12.5331 12.1775 12.4356 12.092 12.4396Z" fill="#212121"/>
<path d="M12.9296 12.574C12.9121 12.5935 12.8886 12.648 12.9276 12.6735C12.9646 12.699 12.9686 12.736 12.9356 12.777C13.0586 12.7615 13.0686 12.6655 13.0391 12.607C13.0101 12.551 12.9491 12.5545 12.9296 12.574Z" fill="#212121"/>
<path d="M11.332 11.5274C11.287 11.4629 11.1015 11.5214 11.0095 11.5099C10.9355 11.4944 10.8785 11.5354 10.871 11.5919C10.828 11.5859 10.793 11.6114 10.777 11.6699C10.7535 11.6719 10.726 11.6914 10.726 11.7304C10.726 11.7694 10.7555 11.8554 10.8 11.8984C10.847 11.9434 10.8645 11.9159 10.888 11.8709C10.9095 11.8809 10.935 11.8749 10.966 11.8434C10.9815 11.8434 11.003 11.8354 11.0285 11.8159C11.085 11.8509 11.13 11.8724 11.1495 11.8979C11.169 11.9254 11.1985 11.9194 11.257 11.8609C11.3525 11.8724 11.5245 11.9039 11.622 11.9274C11.667 11.8884 11.7295 11.8649 11.7685 11.8549C11.614 11.8079 11.446 11.7594 11.3895 11.7359C11.455 11.6699 11.365 11.5739 11.332 11.5274Z" fill="#FBC02D"/>
<path d="M10.965 11.8379C10.955 11.8534 10.93 11.8749 10.889 11.8709C10.879 11.8884 10.8635 11.9119 10.842 11.9199C10.852 11.9454 10.918 11.9414 10.9535 11.9119C11.0275 11.9334 11.0705 11.9004 11.0705 11.8984C11.09 11.8984 11.1095 11.8924 11.131 11.8789C11.0995 11.8534 11.055 11.8299 11.0295 11.8164C11.0115 11.8299 10.9885 11.8359 10.965 11.8379Z" fill="#212121"/>
<path d="M10.955 11.666C10.957 11.711 10.996 11.717 11.035 11.707C11.0605 11.699 11.068 11.6775 11.0665 11.623C11.0645 11.5505 11.09 11.5255 11.1095 11.4745C10.9805 11.465 10.949 11.574 10.955 11.666Z" fill="#212121"/>
<path d="M10.533 9.93349C10.578 9.92349 10.572 9.95699 10.6835 9.89449C10.7245 9.87099 10.7735 9.79299 10.7615 9.76349C10.7105 9.81999 10.5995 9.88249 10.5585 9.84749C10.5195 9.81049 10.5505 9.75949 10.5955 9.71249C10.6425 9.66349 10.6715 9.57599 10.6815 9.53649C10.709 9.44449 10.666 9.47199 10.623 9.51299C10.58 9.55199 10.498 9.61249 10.416 9.66349C10.332 9.71449 10.322 9.77499 10.3555 9.86249C10.379 9.92299 10.387 9.98349 10.3905 10.04C10.3925 10.0965 10.463 10.247 10.703 10.1515C10.707 10.1515 10.699 10.128 10.705 10.091C10.7185 10.005 10.7755 9.96399 10.7675 9.96399C10.674 9.96299 10.543 9.98999 10.533 9.93349Z" fill="#558B2F"/>
<path d="M10.9685 10.0411C10.8845 10.0566 10.861 10.1171 10.871 10.1776C10.949 10.2361 10.9825 10.3456 10.9005 10.4121C10.635 10.6171 10.387 10.8241 10.502 11.1936C10.588 11.4731 10.8165 11.4221 10.8945 11.4241L10.754 11.1801C10.633 10.9986 10.67 10.8696 10.971 10.6311C11.264 10.4026 11.1995 10.2661 11.141 10.1486C11.117 10.1211 11.031 10.0276 10.9685 10.0411Z" fill="#558B2F"/>
<path d="M10.7265 11.7306C10.703 11.7306 10.6835 11.7421 10.668 11.7326C10.5545 11.6621 10.6075 11.4181 10.4435 11.3516C10.2815 11.2851 10.301 11.2031 10.3515 11.0916C10.404 10.9801 10.3865 10.6581 10.1095 10.6521C9.82997 10.6461 10.0295 10.7576 10.1175 10.8026C10.2075 10.8496 10.264 10.9021 10.219 11.0391C10.172 11.1741 10.1 11.3401 10.2775 11.4726C10.3945 11.5606 10.432 11.5896 10.459 11.7401C10.498 11.9666 10.658 12.0566 10.844 11.9196C10.785 11.9101 10.7385 11.8106 10.7265 11.7306Z" fill="#558B2F"/>
<path d="M9.89444 10.6229C9.84744 10.6364 9.83794 10.6524 9.87894 10.6894C9.90644 10.7149 9.88294 10.7694 9.94344 10.7849C9.99594 10.8004 10.0119 10.7419 9.99794 10.7204C9.98994 10.7029 9.99794 10.6694 10.0134 10.6579C10.0329 10.6404 10.0484 10.5854 9.99594 10.5719C9.93344 10.5544 9.93144 10.6114 9.89444 10.6229Z" fill="#FBC02D"/>
<path d="M9.965 10.6405C9.918 10.656 9.9085 10.672 9.9495 10.709C9.977 10.7345 9.9535 10.787 10.014 10.8045C10.0685 10.82 10.0825 10.7615 10.0685 10.738C10.0605 10.7225 10.0685 10.689 10.084 10.6755C10.1035 10.66 10.119 10.605 10.0665 10.5915C10.006 10.574 10.002 10.631 9.965 10.6405Z" fill="#FBC02D"/>
<path d="M10.037 10.6601C9.99002 10.6756 9.97852 10.6916 10.0195 10.7286C10.049 10.7541 10.0235 10.8066 10.086 10.8241C10.1385 10.8396 10.1525 10.7811 10.1405 10.7576C10.1305 10.7421 10.1385 10.7086 10.156 10.6951C10.1755 10.6796 10.191 10.6246 10.1385 10.6111C10.076 10.5941 10.0725 10.6506 10.037 10.6601Z" fill="#FBC02D"/>
<path d="M10.9685 10.035C10.9275 10.037 10.8885 10.078 10.875 10.115C11.0725 10.1445 11.1895 10.455 11.006 10.6035C11.26 10.3905 11.2325 10.242 11.141 10.1485C11.117 10.121 11.033 10.0315 10.9685 10.035Z" fill="#827717"/>
<path d="M10.7655 11.158C10.699 11.0975 10.6735 10.9785 10.7245 10.8845C10.6035 11.0425 10.582 11.41 10.8845 11.4235C11.0175 11.4295 11.117 11.439 11.109 11.4745C11.105 11.49 11.0565 11.543 11.066 11.6425C11.0895 11.6405 11.117 11.6445 11.1285 11.66C11.148 11.6855 11.1385 11.7205 11.148 11.736C11.238 11.697 11.394 11.601 11.3045 11.367C11.1895 11.0725 10.877 11.2615 10.7655 11.158Z" fill="#827717"/>
<path d="M11.156 9.9999C11.107 10.0214 11.0525 10.0664 11.0525 10.0664L11.1015 10.1074C11.1015 10.1074 11.172 10.0489 11.211 10.0389C11.252 10.0289 11.252 9.9919 11.2405 9.9864C11.2285 9.9824 11.1935 9.9844 11.156 9.9999Z" fill="#827717"/>
<path d="M11.0135 9.75994C10.992 9.77944 10.9645 9.83044 10.9645 9.83044C10.9645 9.83044 11.0015 9.84194 11.035 9.83644C11.0685 9.83094 11.0935 9.81894 11.111 9.78394C11.1345 9.73494 11.0895 9.68994 11.0895 9.68994C11.0895 9.68994 11.035 9.73994 11.0135 9.75994Z" fill="#EF6C00"/>
<path d="M10.992 9.77751C10.99 9.79901 11.0545 9.79901 11.066 9.76751C11.0795 9.72851 11.056 9.71851 11.056 9.71851L10.992 9.77751Z" fill="#212121"/>
<path d="M11.0309 9.76952C11.0309 9.77552 11.0269 9.77952 11.0229 9.77952C11.0169 9.77952 11.0129 9.77552 11.0129 9.76952C11.0129 9.76352 11.0169 9.75952 11.0229 9.75952C11.0274 9.76002 11.0309 9.76352 11.0309 9.76952Z" fill="white"/>
<path d="M10.717 9.6035C10.6585 9.58 10.6645 9.584 10.6645 9.584L10.647 9.629C10.6785 9.623 10.805 9.676 10.805 9.676C10.805 9.676 10.7755 9.627 10.717 9.6035Z" fill="#827717"/>
<path d="M10.5195 9.65461C10.5195 9.66261 10.5275 9.66811 10.535 9.66811C10.5425 9.66811 10.5485 9.66211 10.5485 9.65461C10.5485 9.64711 10.5425 9.64111 10.535 9.64111C10.5275 9.64111 10.5195 9.64661 10.5195 9.65461Z" fill="#212121"/>
</svg>
